<svg xmlns="http://www.w3.org/2000/svg" viewBox="0 0 30 90">
  <!-- Upper arm - hoodie sleeve -->
  <path d="M4 0 L26 0 Q28 2 27 6 L24 42 Q23 46 20 46 L10 46 Q7 46 6 42 L3 6 Q2 2 4 0 Z" fill="#457b9d"/>

  <!-- Sleeve cuff / ribbing -->
  <rect x="6" y="40" width="18" height="6" rx="2" fill="#3a6d8c"/>

  <!-- Forearm - skin -->
  <path d="M8 46 L22 46 L21 68 Q20 70 18 70 L12 70 Q10 70 9 68 Z" fill="#e8c8a0"/>

  <!-- Wrist -->
  <rect x="9" y="68" width="12" height="4" rx="2" fill="#e8c8a0"/>

  <!-- Hand -->
  <path d="M8 72 Q6 72 5 76 L5 82 Q6 86 10 86 L20 86 Q24 86 25 82 L25 76 Q24 72 22 72 Z" fill="#e8c8a0"/>

  <!-- Fingers -->
  <path d="M7 86 L7 89 Q7 90 8 90 L10 90 Q11 90 11 89 L11 86" fill="#e8c8a0" stroke="#d4a984" stroke-width="0.5"/>
  <path d="M11 86 L11 90 Q11 91 12.5 91 L14 91 Q15 91 15 90 L15 86" fill="#e8c8a0" stroke="#d4a984" stroke-width="0.5"/>
  <path d="M15 86 L15 89 Q15 90 16.5 90 L18 90 Q19 90 19 89 L19 86" fill="#e8c8a0" stroke="#d4a984" stroke-width="0.5"/>
  <path d="M19 86 L19 88 Q19 89 20 89 L22 89 Q23 89 23 88 L23 86" fill="#e8c8a0" stroke="#d4a984" stroke-width="0.5"/>

  <!-- Thumb (mirrored to right side) -->
  <path d="M25 78 L28 80 Q29 82 28 83 L26 84 Q24 84 24 82 L24 78" fill="#e8c8a0" stroke="#d4a984" stroke-width="0.5"/>

  <!-- Sleeve wrinkle -->
  <path d="M20 20 Q15 24 20 30" fill="none" stroke="#3a6d8c" stroke-width="0.8" opacity="0.6"/>
</svg>
